<?xml version="1.0" encoding="UTF-8"?>
<svg width="1080" height="1920" viewBox="0 0 1080 1920" xmlns="http://www.w3.org/2000/svg">
  <defs>
    <linearGradient id="splashBg" x1="0%" y1="0%" x2="100%" y2="100%">
      <stop offset="0%" style="stop-color:#667eea;stop-opacity:1" />
      <stop offset="50%" style="stop-color:#764ba2;stop-opacity:1" />
      <stop offset="100%" style="stop-color:#f093fb;stop-opacity:1" />
    </linearGradient>
    <linearGradient id="logoGrad" x1="0%" y1="0%" x2="100%" y2="100%">
      <stop offset="0%" style="stop-color:#ffffff;stop-opacity:0.9" />
      <stop offset="100%" style="stop-color:#f5576c;stop-opacity:0.8" />
    </linearGradient>
  </defs>

  <!-- Background -->
  <rect width="1080" height="1920" fill="url(#splashBg)"/>

  <!-- Central logo area -->
  <g transform="translate(540, 960)">
    <!-- Main icon circle -->
    <circle cx="0" cy="0" r="120" fill="rgba(255,255,255,0.1)" stroke="rgba(255,255,255,0.2)" stroke-width="2"/>

    <!-- Musical notes -->
    <ellipse cx="-50" cy="20" rx="18" ry="14" fill="url(#logoGrad)" transform="rotate(-20 -50 20)"/>
    <rect x="-35" y="-40" width="4" height="60" fill="url(#logoGrad)" rx="2"/>
    <path d="M -31 -40 Q -10 -45 5 -35 Q -10 -30 -31 -35 Z" fill="url(#logoGrad)"/>

    <ellipse cx="30" cy="-10" rx="18" ry="14" fill="url(#logoGrad)" transform="rotate(-20 30 -10)"/>
    <rect x="45" y="-60" width="4" height="50" fill="url(#logoGrad)" rx="2"/>
    <path d="M 49 -60 Q 70 -65 85 -55 Q 70 -50 49 -55 Z" fill="url(#logoGrad)"/>

    <!-- Sound waves -->
    <path d="M -80 -20 Q -60 -30 -40 -20" stroke="rgba(255,255,255,0.4)" stroke-width="3" fill="none" stroke-linecap="round"/>
    <path d="M -90 0 Q -60 -15 -30 0" stroke="rgba(255,255,255,0.3)" stroke-width="2" fill="none" stroke-linecap="round"/>
    <path d="M -100 20 Q -60 0 -20 20" stroke="rgba(255,255,255,0.2)" stroke-width="1" fill="none" stroke-linecap="round"/>
  </g>

  <!-- App name as paths -->
  <g transform="translate(540, 1200)">
    <!-- ELYTHRA -->
    <path d="M -120 -20 L -120 20 L -60 20 L -60 10 L -110 10 L -110 5 L -70 5 L -70 -5 L -110 -5 L -110 -10 L -60 -10 L -60 -20 Z" fill="rgba(255,255,255,0.9)"/>
    <path d="M -50 -20 L -50 20 L -40 20 L -40 -10 L -20 -10 L -20 -20 Z" fill="rgba(255,255,255,0.9)"/>
    <path d="M -10 -20 L -10 -10 L 10 -10 L 10 -20 L 20 -20 L 20 20 L 10 20 L 10 0 L -10 0 L -10 20 L -20 20 L -20 -20 Z" fill="rgba(255,255,255,0.9)"/>
    <path d="M 30 -20 L 30 20 L 40 20 L 40 -20 L 60 -20 L 60 -10 L 50 -10 L 50 20 L 70 20 L 70 -20 Z" fill="rgba(255,255,255,0.9)"/>
    <path d="M 80 -20 L 80 20 L 90 20 L 90 5 L 110 5 L 110 20 L 120 20 L 120 -20 L 110 -20 L 110 -5 L 90 -5 L 90 -20 Z" fill="rgba(255,255,255,0.9)"/>
    
    <!-- MUSIC -->
    <path d="M -80 40 L -80 80 L -70 80 L -70 50 L -50 50 L -50 80 L -40 80 L -40 40 Z" fill="rgba(255,255,255,0.7)"/>
    <path d="M -30 40 L -30 80 L -20 80 L -20 70 L 0 70 L 0 80 L 10 80 L 10 40 L 0 40 L 0 60 L -20 60 L -20 40 Z" fill="rgba(255,255,255,0.7)"/>
    <path d="M 20 40 L 20 50 L 30 50 L 30 40 L 50 40 L 50 50 L 40 50 L 40 70 L 50 70 L 50 80 L 20 80 L 20 70 L 30 70 L 30 60 L 20 60 Z" fill="rgba(255,255,255,0.7)"/>
    <path d="M 60 40 L 60 80 L 70 80 L 70 40 Z" fill="rgba(255,255,255,0.7)"/>
    <path d="M 80 40 L 80 50 L 90 50 L 90 40 L 110 40 L 110 50 L 100 50 L 100 70 L 110 70 L 110 80 L 80 80 L 80 70 L 90 70 L 90 60 L 80 60 Z" fill="rgba(255,255,255,0.7)"/>
  </g>

  <!-- Subtle animation elements -->
  <circle cx="200" cy="400" r="2" fill="rgba(255,255,255,0.3)">
    <animate attributeName="opacity" values="0.3;0.8;0.3" dur="3s" repeatCount="indefinite"/>
  </circle>
  <circle cx="880" cy="600" r="1.5" fill="rgba(255,255,255,0.4)">
    <animate attributeName="opacity" values="0.4;0.9;0.4" dur="2s" repeatCount="indefinite"/>
  </circle>
  <circle cx="150" cy="1400" r="1" fill="rgba(255,255,255,0.2)">
    <animate attributeName="opacity" values="0.2;0.7;0.2" dur="4s" repeatCount="indefinite"/>
  </circle>
</svg>